<svg width="80" height="80" viewBox="0 0 80 80" fill="none" xmlns="http://www.w3.org/2000/svg">
<g clip-path="url(#clip0)">
<path d="M2.38128 51.3067C2.11049 51.3137 1.84141 51.2617 1.59275 51.1542C1.34408 51.0468 1.12178 50.8865 0.941282 50.6845C0.757047 50.4816 0.617528 50.2422 0.531773 49.9819C0.446019 49.7215 0.415946 49.4461 0.443504 49.1734L2.3635 27.3423C2.42396 26.7477 2.69935 26.1957 3.13797 25.7898C3.5766 25.3839 4.14829 25.1521 4.74573 25.1378H54.5235C54.7943 25.1308 55.0634 25.1829 55.312 25.2903C55.5607 25.3978 55.783 25.5581 55.9635 25.76C56.1507 25.9611 56.292 26.2002 56.378 26.4611C56.4639 26.7219 56.4923 26.9983 56.4613 27.2712L54.5591 49.1023C54.4986 49.6968 54.2232 50.2488 53.7846 50.6547C53.346 51.0606 52.7743 51.2925 52.1768 51.3067H2.38128Z" fill="#0B0C0C"/>
<path d="M54.542 25.5825C54.7517 25.5803 54.9597 25.6219 55.1525 25.7046C55.3453 25.7872 55.5188 25.9091 55.662 26.0624C55.8026 26.2175 55.9086 26.4008 55.973 26.6C56.0374 26.7993 56.0586 27.0099 56.0353 27.218L54.1331 49.0669C54.0737 49.5482 53.8437 49.9922 53.4849 50.3184C53.1261 50.6446 52.6622 50.8313 52.1775 50.8447H2.39973C2.18995 50.8468 1.98203 50.8052 1.78921 50.7226C1.59638 50.6399 1.42287 50.518 1.27973 50.3647C1.14276 50.2072 1.03907 50.0237 0.974913 49.8251C0.910752 49.6265 0.887447 49.417 0.9064 49.2091L2.80862 27.378C2.86749 26.8997 3.09489 26.458 3.45002 26.1322C3.80516 25.8063 4.26477 25.6178 4.7464 25.6002H54.5242L54.542 25.5825ZM54.5242 24.7113H4.7464C4.037 24.7253 3.35739 24.9991 2.8364 25.4808C2.31541 25.9625 1.98924 26.6185 1.91973 27.3247L0.0175107 49.138C-0.0234153 49.4699 0.00759846 49.8066 0.108444 50.1254C0.209289 50.4442 0.3776 50.7376 0.601934 50.9855C0.826268 51.2335 1.10136 51.4302 1.40851 51.5624C1.71567 51.6945 2.04767 51.759 2.38196 51.7513H52.1597C52.8598 51.7246 53.5265 51.4451 54.0364 50.9646C54.5463 50.4842 54.8648 49.8353 54.9331 49.138L56.8531 27.3069C56.8883 26.9746 56.8526 26.6387 56.7486 26.3212C56.6445 26.0037 56.4743 25.7119 56.2492 25.4649C56.0241 25.218 55.7492 25.0216 55.4427 24.8886C55.1362 24.7557 54.8049 24.6892 54.4708 24.6936L54.5242 24.7113Z" fill="#0B0C0C"/>
<path d="M5.15459 51.3067C4.88112 51.3139 4.60933 51.262 4.35775 51.1545C4.10617 51.0471 3.88073 50.8867 3.6968 50.6842C3.51287 50.4817 3.37477 50.2419 3.29194 49.9812C3.20911 49.7204 3.18348 49.4449 3.21681 49.1734L5.15459 27.3423C5.21544 26.7448 5.49336 26.1903 5.9357 25.784C6.37804 25.3777 6.95405 25.1478 7.55459 25.1379H57.3324C57.6058 25.1307 57.8776 25.1826 58.1292 25.2901C58.3808 25.3975 58.6062 25.5579 58.7901 25.7604C58.9741 25.9629 59.1122 26.2027 59.195 26.4634C59.2778 26.7242 59.3035 26.9997 59.2701 27.2712L57.3679 49.1023C57.3026 49.7043 57.0185 50.2614 56.5695 50.6678C56.1205 51.0742 55.5379 51.3016 54.9324 51.3067H5.15459Z" fill="white"/>
<path d="M57.3325 25.5822C57.5423 25.5801 57.7502 25.6217 57.943 25.7043C58.1359 25.7869 58.3094 25.9088 58.4525 26.0622C58.5932 26.2173 58.6992 26.4006 58.7636 26.5998C58.8279 26.799 58.8492 27.0097 58.8258 27.2178L56.9236 49.0667C56.8642 49.5479 56.6343 49.992 56.2755 50.3181C55.9167 50.6443 55.4528 50.8311 54.9681 50.8444H5.15473C4.94479 50.8477 4.73653 50.8066 4.54354 50.7239C4.35055 50.6412 4.17718 50.5187 4.03473 50.3644C3.89106 50.2113 3.78307 50.0283 3.71853 49.8285C3.65398 49.6287 3.63447 49.4171 3.66139 49.2089L5.59917 27.3778C5.65854 26.8965 5.8885 26.4525 6.24731 26.1263C6.60612 25.8001 7.06999 25.6133 7.55473 25.6H57.3325V25.5822ZM57.3325 24.7111H7.55473C6.84339 24.7246 6.16156 24.9978 5.63764 25.4791C5.11373 25.9605 4.7839 26.6168 4.71028 27.3244L2.80806 49.1378C2.7732 49.467 2.80789 49.7999 2.90988 50.115C3.01187 50.43 3.17888 50.72 3.40011 50.9664C3.62133 51.2128 3.89182 51.4099 4.19408 51.5451C4.49634 51.6803 4.82362 51.7504 5.15473 51.7511H54.9325C55.6427 51.7338 56.3225 51.4593 56.8456 50.9787C57.3687 50.4981 57.6997 49.8439 57.7769 49.1378L59.6792 27.3066C59.7144 26.9744 59.6787 26.6384 59.5747 26.3209C59.4706 26.0035 59.3004 25.7116 59.0753 25.4647C58.8502 25.2178 58.5753 25.0214 58.2688 24.8884C57.9623 24.7554 57.631 24.6889 57.297 24.6933L57.3325 24.7111Z" fill="black"/>
<path d="M54.3815 38.5066H9.93701H54.3815Z" fill="white"/>
<path d="M54.3815 38.5066H9.93701" stroke="black" stroke-width="1.8" stroke-linecap="round" stroke-linejoin="round"/>
<path d="M18.5056 43.5735C17.5035 43.5735 16.524 43.2764 15.6907 42.7196C14.8575 42.1629 14.2081 41.3716 13.8246 40.4458C13.4412 39.52 13.3408 38.5012 13.5363 37.5184C13.7318 36.5356 14.2144 35.6328 14.923 34.9242C15.6315 34.2156 16.5343 33.733 17.5172 33.5375C18.5 33.342 19.5187 33.4424 20.4446 33.8259C21.3704 34.2093 22.1617 34.8588 22.7184 35.692C23.2751 36.5252 23.5723 37.5048 23.5723 38.5069C23.5723 39.8506 23.0385 41.1393 22.0883 42.0895C21.1381 43.0397 19.8494 43.5735 18.5056 43.5735Z" fill="#0B0C0C"/>
<path d="M18.5057 33.9203C19.4136 33.9168 20.3022 34.1828 21.0588 34.6846C21.8154 35.1865 22.406 35.9016 22.7559 36.7393C23.1058 37.5771 23.1992 38.4999 23.0242 39.3908C22.8492 40.2817 22.4138 41.1006 21.7731 41.7439C21.1323 42.3871 20.3151 42.8257 19.4249 43.0041C18.5347 43.1826 17.6116 43.0928 16.7724 42.7461C15.9333 42.3995 15.2159 41.8116 14.7111 41.057C14.2063 40.3023 13.9369 39.4149 13.9369 38.5069C13.9415 37.295 14.4238 36.1337 15.2791 35.2751C16.1344 34.4164 17.2938 33.9296 18.5057 33.9203ZM18.5057 32.9781C17.413 32.9816 16.3458 33.3088 15.4389 33.9185C14.532 34.5281 13.8262 35.3928 13.4104 36.4034C12.9947 37.414 12.8877 38.5251 13.103 39.5964C13.3184 40.6678 13.8464 41.6512 14.6203 42.4227C15.3942 43.1942 16.3794 43.719 17.4514 43.9309C18.5234 44.1428 19.6342 44.0322 20.6434 43.6132C21.6527 43.1943 22.5151 42.4856 23.1218 41.5768C23.7286 40.6679 24.0524 39.5997 24.0524 38.5069C24.0524 37.7794 23.9088 37.059 23.6299 36.387C23.3509 35.7151 22.942 35.1048 22.4268 34.5911C21.9115 34.0775 21.2999 33.6706 20.627 33.3938C19.9542 33.117 19.2333 32.9757 18.5057 32.9781Z" fill="#0B0C0C"/>
<path d="M19.7856 43.5913C18.78 43.5913 17.797 43.2931 16.9609 42.7344C16.1247 42.1757 15.473 41.3816 15.0882 40.4525C14.7034 39.5235 14.6027 38.5012 14.7989 37.5149C14.9951 36.5286 15.4793 35.6226 16.1904 34.9116C16.9014 34.2005 17.8074 33.7162 18.7937 33.5201C19.78 33.3239 20.8023 33.4246 21.7314 33.8094C22.6604 34.1942 23.4545 34.8459 24.0132 35.682C24.5719 36.5182 24.8701 37.5012 24.8701 38.5068C24.8654 39.8538 24.3282 41.1444 23.3757 42.0969C22.4232 43.0494 21.1327 43.5866 19.7856 43.5913Z" fill="white"/>
<path d="M19.7852 33.8669C20.7022 33.8704 21.5975 34.1455 22.3582 34.6575C23.1189 35.1695 23.7109 35.8954 24.0593 36.7435C24.4078 37.5917 24.4972 38.5241 24.3161 39.423C24.1351 40.3219 23.6918 41.147 23.0422 41.7941C22.3925 42.4413 21.5657 42.8814 20.6662 43.059C19.7666 43.2366 18.8345 43.1437 17.9877 42.792C17.1409 42.4403 16.4173 41.8456 15.9082 41.0829C15.3992 40.3202 15.1275 39.4239 15.1275 38.5069C15.1275 37.8961 15.2481 37.2913 15.4824 36.7271C15.7166 36.163 16.06 35.6507 16.4928 35.2196C16.9255 34.7885 17.4391 34.4471 18.0041 34.215C18.5691 33.9829 19.1744 33.8646 19.7852 33.8669ZM19.7852 32.978C18.6917 32.978 17.6228 33.3023 16.7136 33.9098C15.8043 34.5173 15.0957 35.3808 14.6772 36.3911C14.2587 37.4014 14.1493 38.513 14.3626 39.5855C14.5759 40.658 15.1025 41.6432 15.8757 42.4164C16.649 43.1897 17.6341 43.7162 18.7066 43.9296C19.7791 44.1429 20.8908 44.0334 21.9011 43.6149C22.9113 43.1965 23.7748 42.4878 24.3823 41.5786C24.9899 40.6694 25.3141 39.6004 25.3141 38.5069C25.3094 37.042 24.7254 35.6384 23.6896 34.6026C22.6537 33.5667 21.2501 32.9827 19.7852 32.978Z" fill="black"/>
<path d="M21.812 45.9025L25.2076 42.8447L34.612 47.7158L28.7987 49.2981L32.212 54.1692L30.132 55.6981L26.7898 50.8803L23.732 56.1069L21.812 45.9025Z" fill="black"/>
<path d="M25.3141 43.6443L32.7808 47.5199L27.7141 48.8888L31.2697 54.0265L30.2741 54.7554L26.7186 49.6532L24.0519 54.2221L22.5408 46.2221L25.3141 43.7154V43.6443ZM25.1008 42.0977L24.4252 42.7199L21.6341 45.1554L21.083 45.6532L21.2252 46.3999L22.7541 54.471L23.4119 58.0265L25.1897 54.951L26.8252 52.1777L29.1897 55.5732L29.9719 56.6932L31.0741 55.8754L32.0697 55.1465L33.1186 54.3821L32.3719 53.3154L29.883 49.7599L33.1186 48.871L36.4075 47.9821L33.3852 46.3999L25.9186 42.5243L25.083 42.0977H25.1008Z" fill="white"/>
<path d="M26.7554 50.0622L23.9465 54.8622L21.4043 41.3689L33.3865 47.5911L28.0887 49.0311L31.6087 54.0622L30.2399 55.0756L26.7554 50.0622Z" fill="#0B0C0C"/>
<path d="M21.7054 41.7778L32.781 47.52L27.7143 48.8889L31.2699 54.0267L30.2743 54.7556L26.7187 49.6534L24.0521 54.2223L21.7054 41.7778ZM21.1543 40.8889L21.3321 41.7778L23.6787 54.2223L23.8921 55.3956L24.4965 54.3645L26.8254 50.3823L29.9898 54.9156L30.2387 55.2889L30.6121 55.0223L31.6076 54.2934L31.9632 54.0267L31.7143 53.6711L28.4432 49.1556L32.9054 48L33.9898 47.6978L32.9943 47.1823L21.9187 41.4222L21.1543 40.8889Z" fill="#0B0C0C"/>
</g>
<defs>
<clipPath id="clip0">
<rect width="80" height="80" fill="white"/>
</clipPath>
</defs>
</svg>
