<svg width="80" height="80" viewBox="0 0 80 80" fill="none" xmlns="http://www.w3.org/2000/svg">
<g clip-path="url(#clip0)">
<path d="M42.1739 16.4622L37.9961 64.2489C37.9742 64.4753 37.8697 64.6858 37.7024 64.8399C37.5351 64.9941 37.3169 65.0811 37.0894 65.0845H0.911639C0.785552 65.0876 0.660235 65.0639 0.544017 65.0149C0.4278 64.9659 0.323342 64.8927 0.237584 64.8002C0.151825 64.7078 0.0867309 64.5981 0.046625 64.4785C0.00651918 64.3589 -0.00768032 64.2322 0.00497191 64.1067L4.18275 16.3022C4.20489 16.0775 4.3101 15.8691 4.47779 15.7179C4.64549 15.5666 4.86359 15.4834 5.08942 15.4845H41.1961C41.3279 15.4705 41.4612 15.4861 41.5862 15.5303C41.7112 15.5745 41.8247 15.6461 41.9185 15.7398C42.0122 15.8336 42.0838 15.9471 42.128 16.0721C42.1722 16.1971 42.1879 16.3304 42.1739 16.4622Z" fill="#0B0C0C" stroke="#0B0C0C" stroke-width="0.9" stroke-linecap="round" stroke-linejoin="round"/>
<path d="M44.7527 16.4621L40.5571 64.2487C40.5353 64.4752 40.4307 64.6856 40.2634 64.8397C40.0961 64.9939 39.8779 65.081 39.6504 65.0843H3.47267C3.34659 65.0875 3.22127 65.0637 3.10505 65.0147C2.98884 64.9657 2.88438 64.8926 2.79862 64.8001C2.71286 64.7076 2.64776 64.5979 2.60766 64.4783C2.56755 64.3588 2.55336 64.232 2.56601 64.1065L6.74378 16.3021C6.7697 16.0789 6.87603 15.8727 7.0429 15.7222C7.20977 15.5717 7.42575 15.4871 7.65045 15.4843H43.8282C43.9558 15.4785 44.0831 15.5003 44.2015 15.5482C44.3198 15.596 44.4265 15.6688 44.5142 15.7616C44.602 15.8544 44.6687 15.965 44.7098 16.0859C44.7509 16.2067 44.7656 16.3351 44.7527 16.4621Z" fill="white" stroke="#0B0C0C" stroke-width="0.9" stroke-linecap="round" stroke-linejoin="round"/>
<path d="M5.72947 27.8936H43.7384L42.6539 40.2847H4.64502L5.72947 27.8936Z" fill="#0B0C0C" stroke="#0B0C0C" stroke-width="0.9" stroke-miterlimit="10"/>
<path d="M41.5704 52.6758H3.56152" stroke="#0B0C0C" stroke-width="0.9" stroke-linecap="round" stroke-linejoin="round"/>
<path d="M36.4849 34.2754L50.4582 41.5287L44.5915 43.1109L48.0404 48.0709L45.9426 49.5998L42.5471 44.7287L39.4538 50.0265L36.4849 34.2754Z" fill="black"/>
<path d="M37.3926 35.5557L48.6104 41.3868L43.4904 42.6668L47.046 47.8579L46.0504 48.6046L42.4949 43.4313L39.7749 48.1246L37.3926 35.5557ZM35.6149 33.0846L36.1304 35.8046L38.4949 48.4268L39.1704 51.9824L40.9482 48.8713L42.6015 46.0624L44.9838 49.4935L45.7838 50.6313L46.886 49.7779L47.8993 49.0312L48.966 48.249L48.3082 47.129L45.7838 43.5735L49.0549 42.6846L52.3971 41.7779L49.3215 40.1779L38.0149 34.3112L35.5615 33.0312L35.6149 33.0846Z" fill="white"/>
<path d="M42.5116 43.911L39.6671 48.7466L37.0894 35.0933L49.2316 41.3866L43.8449 42.8444L47.4182 47.9644L46.0494 48.9599L42.5116 43.911Z" fill="#0B0C0C"/>
<path d="M37.3916 35.5554L48.6093 41.3865L43.4893 42.6665L47.0449 47.8577L46.0493 48.6043L42.4938 43.431L39.7738 48.1243L37.3916 35.5554ZM36.7871 34.7377L36.9471 35.6443L39.4182 48.2132L39.6493 49.3866L40.2538 48.3554L42.6182 44.3199L45.8182 48.9066L46.0849 49.2799L46.4582 49.0132L47.4538 48.2665L47.8093 48.0177L47.5604 47.6443L44.2182 42.9865L48.7338 41.7599L49.836 41.4577L48.8227 40.9243L37.6404 35.111L36.8227 34.6843L36.7871 34.7377Z" fill="#0B0C0C"/>
</g>
<defs>
<clipPath id="clip0">
<rect width="80" height="80" fill="white"/>
</clipPath>
</defs>
</svg>
