<svg width="80" height="80" viewBox="0 0 80 80" fill="none" xmlns="http://www.w3.org/2000/svg">
<g clip-path="url(#clip0)">
<path d="M19.4316 18.4177C14.9241 18.3034 10.4358 19.0455 6.20493 20.6044C4.17827 21.4577 3.00493 22.3821 2.93382 23.2355L0.000488281 56.7466C0.000488281 57.5644 0.924933 58.5244 2.82715 59.3955C6.91461 60.9818 11.2806 61.7256 15.6627 61.5821C25.476 61.5821 32.0005 58.7199 32.1605 56.7644L35.0938 23.2533C35.2716 21.3333 29.2627 18.4177 19.4316 18.4177Z" fill="white" stroke="#0B0C0C" stroke-width="0.9" stroke-miterlimit="10"/>
<path d="M35.093 23.2533C34.933 25.2088 28.4086 28.0711 18.5953 28.0711C8.78192 28.0711 2.75525 25.1911 2.93303 23.2355C3.1108 21.2799 9.61747 18.4177 19.4308 18.4177C29.2441 18.4177 35.2708 21.3333 35.093 23.2533Z" fill="#0B0C0C" stroke="#0B0C0C" stroke-width="0.9" stroke-miterlimit="10"/>
<path d="M34.1155 34.4177C33.9555 36.3732 27.431 39.2355 17.6177 39.2355C7.80438 39.2355 1.77771 36.3555 1.95549 34.3999" stroke="#0B0C0C" stroke-width="0.9" stroke-miterlimit="10"/>
<path d="M33.1384 45.6176C32.9784 47.5732 26.454 50.4354 16.6407 50.4354C6.82733 50.4354 0.800659 47.5554 0.978437 45.5999" stroke="#0B0C0C" stroke-width="0.9" stroke-miterlimit="10"/>
<path d="M2.93382 23.2001L0.000488281 56.7112C0.000488281 57.1912 0.320489 57.7245 0.978266 58.2401L4.21382 21.689C3.41382 22.2045 2.96938 22.7379 2.93382 23.2001Z" fill="#0B0C0C" stroke="#0B0C0C" stroke-width="0.45" stroke-miterlimit="10"/>
</g>
<defs>
<clipPath id="clip0">
<rect width="80" height="80" fill="white"/>
</clipPath>
</defs>
</svg>
