<svg width="80" height="80" viewBox="0 0 80 80" fill="none" xmlns="http://www.w3.org/2000/svg">
<path d="M2.22217 63.7869L4.26661 64.6047L4.71106 61.3513L2.22217 63.7869Z" fill="#0B0C0C"/>
<path d="M19.8936 44.7112C27.3654 44.7112 33.4225 38.7257 33.4225 31.3423C33.4225 23.9588 27.3654 17.9734 19.8936 17.9734C12.4218 17.9734 6.36475 23.9588 6.36475 31.3423C6.36475 38.7257 12.4218 44.7112 19.8936 44.7112Z" fill="white"/>
<path d="M3.00596 64.3022C2.46062 64.2985 1.9299 64.1255 1.4872 63.807C1.0445 63.4885 0.711711 63.0403 0.534851 62.5244C0.427768 62.1821 0.389911 61.8219 0.423485 61.4648C0.45706 61.1076 0.561396 60.7608 0.730408 60.4444L9.06819 44.4444C6.39233 42.5159 4.42466 39.7611 3.46819 36.6044C2.84453 34.5513 2.63186 32.3954 2.84234 30.26C3.05283 28.1247 3.68234 26.0518 4.69485 24.16C6.14846 21.3927 8.32404 19.0706 10.9908 17.4399C13.6575 15.8092 16.7159 14.9307 19.8415 14.8978C22.1969 14.8919 24.5236 15.4143 26.6504 16.4266C28.5384 17.3342 30.2168 18.6248 31.5788 20.2164C32.9408 21.8079 33.9566 23.6656 34.5615 25.6711C35.191 27.7233 35.4068 29.8801 35.1962 32.0163C34.9856 34.1526 34.3529 36.2257 33.3349 38.1155C31.885 40.8835 29.7133 43.2075 27.0498 44.8413C24.3863 46.475 21.3304 47.3577 18.206 47.3955C16.7319 47.3958 15.2654 47.1863 13.8504 46.7733L5.44152 62.7733C5.21098 63.224 4.86295 63.6039 4.43423 63.8731C4.0055 64.1422 3.51202 64.2905 3.00596 64.3022ZM19.7349 20.3022C17.6054 20.3289 15.5234 20.9356 13.7129 22.057C11.9024 23.1784 10.4319 24.772 9.4593 26.6666C8.09607 29.2153 7.79573 32.1996 8.62374 34.9689C9.02371 36.2925 9.69502 37.5183 10.5949 38.5682C11.4948 39.618 12.6035 40.4689 13.8504 41.0666C15.2656 41.7446 16.8146 42.0969 18.3837 42.0978C20.5072 42.0646 22.5816 41.4549 24.3853 40.3339C26.189 39.2129 27.654 37.6226 28.6237 35.7333C29.3034 34.4729 29.7271 33.0904 29.8705 31.6656C30.0139 30.2408 29.8742 28.8017 29.4593 27.4311C29.0573 26.1058 28.3833 24.879 27.4803 23.829C26.5772 22.7791 25.4651 21.929 24.2149 21.3333C22.8171 20.6597 21.2864 20.3074 19.7349 20.3022Z" fill="#0B0C0C"/>
<path d="M19.8586 15.3955C22.1478 15.3847 24.4094 15.8954 26.4719 16.8889C28.3005 17.754 29.9281 18.9916 31.2506 20.5223C32.5732 22.0529 33.5613 23.843 34.1519 25.7778C34.7556 27.7665 34.9612 29.8548 34.7568 31.9231C34.5524 33.9914 33.9421 35.999 32.9608 37.8311C31.5455 40.5243 29.4289 42.7852 26.8348 44.3749C24.2406 45.9646 21.2652 46.8239 18.223 46.8622C16.6669 46.8589 15.1204 46.6191 13.6363 46.1511L5.06746 62.5244C4.86912 62.9009 4.57284 63.2169 4.20989 63.4391C3.84693 63.6612 3.43075 63.7813 3.00524 63.7867C2.67925 63.7861 2.35745 63.7132 2.06302 63.5733C1.80419 63.4474 1.57327 63.2708 1.38394 63.054C1.19461 62.8372 1.05072 62.5845 0.960791 62.3111C0.867274 62.0191 0.833251 61.7114 0.860733 61.406C0.888215 61.1007 0.976644 60.8039 1.12079 60.5333L9.65413 44.1956C6.89561 42.3201 4.86769 39.5513 3.9119 36.3556C3.31134 34.3686 3.10897 32.2826 3.31642 30.2172C3.52387 28.1519 4.13705 26.1478 5.12079 24.32C6.53004 21.6218 8.64519 19.3567 11.2407 17.7662C13.8362 16.1757 16.8147 15.3195 19.8586 15.2889V15.3955ZM18.383 42.3467C20.5837 42.3306 22.7387 41.7167 24.6175 40.5706C26.4963 39.4246 28.0283 37.7894 29.0497 35.84C29.7562 34.528 30.1968 33.0894 30.3463 31.6068C30.4958 30.1242 30.3512 28.6266 29.9208 27.2C29.5055 25.817 28.8054 24.5363 27.8654 23.4402C26.9255 22.3441 25.7665 21.4568 24.463 20.8356C22.9808 20.1566 21.364 19.8223 19.7341 19.8578C17.5316 19.8756 15.3754 20.4921 13.4964 21.6414C11.6174 22.7907 10.0865 24.4295 9.06746 26.3822C8.36002 27.6939 7.91887 29.1325 7.76937 30.6153C7.61987 32.098 7.76498 33.5957 8.19635 35.0222C8.6136 36.4042 9.31448 37.684 10.2542 38.7799C11.194 39.8757 12.3519 40.7636 13.6541 41.3867C15.1295 42.0951 16.7464 42.4598 18.383 42.4533V42.3467ZM19.8586 14.5067C16.6534 14.5413 13.5172 15.4419 10.782 17.1131C8.04681 18.7843 5.8143 21.1639 4.32079 24C2.23616 27.91 1.78243 32.4857 3.05857 36.7289C4.00498 39.8575 5.91502 42.6075 8.51635 44.5867L0.33857 60.2311C0.147103 60.6047 0.034132 61.0135 0.00661525 61.4323C-0.0209015 61.8512 0.0376184 62.2713 0.17857 62.6667C0.302334 63.0524 0.503273 63.4089 0.769165 63.7145C1.03506 64.0202 1.36034 64.2685 1.72524 64.4444C2.14254 64.6406 2.59748 64.7437 3.05857 64.7467C3.64988 64.7386 4.22767 64.5686 4.72916 64.2552C5.23064 63.9417 5.63663 63.4969 5.90301 62.9689L14.1341 47.2533C15.4862 47.6086 16.8784 47.7878 18.2763 47.7867C21.4803 47.7471 24.614 46.8423 27.346 45.1681C30.0779 43.4939 32.3066 41.1124 33.7963 38.2756C35.881 34.3656 36.3347 29.7899 35.0586 25.5467C34.4238 23.4851 33.3653 21.5788 31.951 19.9502C30.5366 18.3215 28.7975 17.0063 26.8452 16.0889C24.6594 15.0405 22.265 14.4996 19.8408 14.5067H19.8586ZM18.383 41.5644C16.8823 41.5661 15.4002 41.232 14.0452 40.5867C12.8569 40.0124 11.8009 39.1976 10.944 38.1938C10.0871 37.1901 9.44813 36.0192 9.06746 34.7556C8.27278 32.0992 8.56034 29.2364 9.86746 26.7911C10.8122 24.9859 12.2286 23.4705 13.966 22.4061C15.7033 21.3418 17.6968 20.7683 19.7341 20.7467C21.2371 20.7426 22.7211 21.0831 24.0719 21.7422C25.2667 22.3052 26.3293 23.114 27.1901 24.1157C28.0509 25.1175 28.6906 26.2896 29.0675 27.5556C29.4587 28.8796 29.5848 30.2678 29.4383 31.6406C29.2919 33.0134 28.8759 34.3439 28.2141 35.5556C27.2753 37.358 25.8652 38.8721 24.1339 39.9365C22.4027 41.0009 20.4152 41.5758 18.383 41.6V41.5644Z" fill="#0B0C0C"/>
<path d="M5.01358 65.0314C4.6201 65.0383 4.23047 64.953 3.8758 64.7825C3.5617 64.6311 3.28159 64.4175 3.05241 64.1547C2.82323 63.892 2.64975 63.5854 2.54246 63.2536C2.43068 62.9128 2.38881 62.5529 2.41936 62.1955C2.4499 61.8381 2.55224 61.4905 2.72024 61.1736L11.0936 45.1736C8.41573 43.2508 6.45224 40.4932 5.51135 37.3336C4.8838 35.2811 4.66909 33.1246 4.87964 30.9887C5.09018 28.8527 5.7218 26.7797 6.73802 24.8892C8.19171 22.1258 10.3649 19.8064 13.0278 18.1761C15.6908 16.5458 18.7447 15.665 21.8669 15.627C24.2101 15.6482 26.5187 16.195 28.6225 17.227C30.5138 18.1279 32.1961 19.414 33.5614 21.0028C34.9268 22.5917 35.9452 24.4483 36.5513 26.4536C37.1762 28.5073 37.388 30.6644 37.1744 32.8004C36.9608 34.9363 36.3261 37.0088 35.3069 38.8981C33.8562 41.6639 31.6838 43.9854 29.0201 45.6161C26.3565 47.2469 23.301 48.126 20.178 48.1603C18.7049 48.1653 17.2385 47.9618 15.8225 47.5558L7.43135 63.5558C7.1952 63.9939 6.84689 64.3614 6.42207 64.6207C5.99725 64.88 5.51117 65.0217 5.01358 65.0314ZM21.6891 21.0492C19.5753 21.0757 17.5078 21.6728 15.7053 22.7775C13.9029 23.8821 12.4323 25.4532 11.4491 27.3247C10.1032 29.8531 9.80317 32.8086 10.6136 35.5558C11.0165 36.8806 11.6909 38.107 12.5939 39.1568C13.4968 40.2067 14.6084 41.057 15.858 41.6536C17.2732 42.3295 18.8231 42.6759 20.3914 42.667C22.5034 42.643 24.5695 42.0467 26.3696 40.9416C28.1697 39.8365 29.6364 38.264 30.6136 36.3914C31.9787 33.8433 32.2791 30.8582 31.4491 28.0892C31.046 26.7693 30.3733 25.5474 29.4737 24.5008C28.574 23.4543 27.4669 22.6058 26.2225 22.0092C24.805 21.3458 23.2539 21.0173 21.6891 21.0492Z" fill="white"/>
<path d="M21.8495 16.1247C24.1456 16.1217 26.4126 16.6384 28.4806 17.6359C30.3067 18.5046 31.9323 19.7434 33.2544 21.2736C34.5765 22.8037 35.5661 24.5919 36.1606 26.5247C37.3647 30.5446 36.9301 34.8774 34.9518 38.5781C33.541 41.275 31.4255 43.5391 28.8303 45.1294C26.2352 46.7196 23.2575 47.5766 20.214 47.6092C18.6589 47.6105 17.1125 47.3768 15.6273 46.9159L7.0762 63.2892C6.87699 63.6636 6.58005 63.9771 6.21692 64.1962C5.8538 64.4153 5.43808 64.5319 5.01397 64.5336C4.68758 64.5368 4.36495 64.4638 4.07175 64.3203C3.81173 64.2007 3.57945 64.0283 3.38969 63.8141C3.19993 63.5998 3.05684 63.3484 2.96953 63.0759C2.86809 62.786 2.82834 62.4781 2.85283 62.172C2.87732 61.8658 2.96551 61.5682 3.11175 61.2981L11.6629 44.9603C8.90639 43.0828 6.87906 40.3148 5.92064 37.1203C5.31689 35.1316 5.11133 33.0433 5.31572 30.975C5.5201 28.9067 6.13043 26.8991 7.11175 25.067C8.52706 22.3737 10.6436 20.1128 13.2378 18.5232C15.8319 16.9335 18.8073 16.0741 21.8495 16.0359V16.1247ZM20.3918 43.0936C22.5925 43.0776 24.7474 42.4637 26.6262 41.3176C28.505 40.1715 30.037 38.5364 31.0584 36.587C32.4778 33.9348 32.7909 30.8291 31.9295 27.947C31.5113 26.5629 30.808 25.2816 29.865 24.1855C28.922 23.0894 27.7601 22.2028 26.454 21.5825C24.9858 20.8714 23.3741 20.5065 21.7429 20.5159C19.543 20.5358 17.3896 21.1513 15.5114 22.2969C13.6333 23.4426 12.1006 25.0756 11.0762 27.0225C9.66281 29.6771 9.35608 32.7828 10.2229 35.6625C10.6371 37.046 11.3369 38.3272 12.2769 39.4234C13.217 40.5197 14.3765 41.4066 15.6806 42.027C17.1554 42.7372 18.7727 43.1019 20.4095 43.0936H20.3918ZM21.8673 15.147C18.6634 15.1865 15.5297 16.0913 12.7977 17.7655C10.0657 19.4398 7.83701 21.8213 6.34731 24.6581C5.31043 26.5926 4.66523 28.7127 4.44864 30.8968C4.23205 33.081 4.44833 35.2865 5.08509 37.387C6.02593 40.5134 7.93745 43.2593 10.5429 45.227L2.34731 60.8714C2.15105 61.2426 2.03106 61.6493 1.99442 62.0676C1.95779 62.4859 2.00524 62.9073 2.13397 63.307C2.26254 63.6929 2.46725 64.0491 2.73597 64.3545C3.0047 64.6598 3.33197 64.9082 3.69842 65.0848C4.11285 65.2891 4.56971 65.3927 5.03175 65.387C5.62263 65.3769 6.19962 65.2061 6.70075 64.8929C7.20189 64.5797 7.60825 64.1359 7.8762 63.6092L16.1784 48.0003C17.5242 48.3568 18.9107 48.5361 20.3029 48.5336C23.4826 48.4868 26.5916 47.5879 29.3057 45.9307C32.0198 44.2735 34.2397 41.9185 35.734 39.1114C36.775 37.1816 37.4226 35.0643 37.6393 32.8824C37.8559 30.7004 37.6374 28.4972 36.9962 26.4003C36.3769 24.335 35.3327 22.422 33.9305 20.784C32.5283 19.1461 30.7991 17.8194 28.854 16.8892C26.6692 15.8379 24.2741 15.2969 21.8495 15.307L21.8673 15.147ZM20.4095 42.2048C18.9023 42.2133 17.4129 41.879 16.054 41.227C14.8753 40.6743 13.8223 39.8859 12.96 38.9106C12.0978 37.9352 11.4446 36.7935 11.0406 35.5559C10.645 34.24 10.5135 32.8588 10.6539 31.4919C10.7942 30.1251 11.2036 28.7994 11.8584 27.5914C12.8011 25.7935 14.2126 24.2841 15.9434 23.2232C17.6741 22.1622 19.6596 21.5891 21.6895 21.5647C23.1912 21.5545 24.6752 21.889 26.0273 22.5425C27.2189 23.1148 28.2784 23.9288 29.1384 24.9326C29.9984 25.9365 30.6402 27.1083 31.0229 28.3736C31.8176 31.03 31.53 33.8928 30.2229 36.3381C29.2801 38.136 27.8686 39.6454 26.1379 40.7063C24.4072 41.7673 22.4217 42.3404 20.3918 42.3647L20.4095 42.2048Z" fill="#0B0C0C"/>
<path d="M18.8278 28.7166C20.0822 27.2057 20.3825 25.3861 19.4987 24.6523C18.6148 23.9185 16.8815 24.5484 15.6271 26.0593C14.3728 27.5701 14.0725 29.3898 14.9563 30.1236C15.8402 30.8573 17.5735 30.2274 18.8278 28.7166Z" fill="white" stroke="#0B0C0C" stroke-width="0.9" stroke-miterlimit="10"/>
</svg>
