<svg width="80" height="80" viewBox="0 0 80 80" fill="none" xmlns="http://www.w3.org/2000/svg">
<g clip-path="url(#clip0)">
<path d="M0.897161 63.2354H38.2305C38.4963 63.2285 38.7507 63.1257 38.9467 62.946C39.1428 62.7663 39.2672 62.5218 39.2972 62.2576L43.1372 17.7776C43.1496 17.6536 43.1359 17.5284 43.0968 17.4101C43.0578 17.2918 42.9943 17.183 42.9105 17.0908C42.8266 16.9986 42.7244 16.925 42.6103 16.8749C42.4962 16.8248 42.3729 16.7992 42.2483 16.7998H4.91494C4.65105 16.8072 4.39892 16.9106 4.20582 17.0906C4.01272 17.2706 3.89191 17.5149 3.86605 17.7776L0.00827221 62.222C-0.00965227 62.3488 8.07922e-07 62.4779 0.0365722 62.6005C0.0731435 62.7232 0.135771 62.8365 0.220171 62.9327C0.304571 63.0289 0.408753 63.1058 0.525594 63.158C0.642436 63.2102 0.76918 63.2366 0.897161 63.2354Z" fill="#0B0C0C" stroke="#0B0C0C" stroke-width="0.846" stroke-miterlimit="10"/>
<path d="M3.08373 63.2352H40.4171C40.6809 63.2278 40.9331 63.1244 41.1262 62.9444C41.3193 62.7644 41.4401 62.5202 41.466 62.2574L45.3593 17.813C45.3717 17.689 45.358 17.5638 45.3189 17.4455C45.2799 17.3272 45.2164 17.2184 45.1326 17.1262C45.0488 17.034 44.9465 16.9604 44.8324 16.9103C44.7183 16.8602 44.595 16.8346 44.4704 16.8352H7.13706C6.87122 16.8421 6.61684 16.9449 6.42081 17.1246C6.22478 17.3043 6.10033 17.5488 6.07039 17.813L2.24817 62.2219C2.23071 62.3442 2.23896 62.4689 2.27239 62.5879C2.30583 62.7069 2.36371 62.8176 2.44233 62.9129C2.52096 63.0083 2.61861 63.0862 2.72905 63.1417C2.83949 63.1972 2.96029 63.229 3.08373 63.2352Z" fill="white" stroke="#0B0C0C" stroke-width="0.846" stroke-miterlimit="10"/>
<path d="M9.05713 28.3556H40.5593L41.0749 22.3467H9.59046L9.05713 28.3556Z" fill="white" stroke="#0B0C0C" stroke-width="0.846" stroke-miterlimit="10"/>
<path d="M8.20459 38.0621H39.7068L40.2401 32.0532H8.73792L8.20459 38.0621Z" fill="white" stroke="#0B0C0C" stroke-width="0.846" stroke-miterlimit="10"/>
<path d="M7.36768 47.7687H38.8521L39.3854 41.7598H7.88323L7.36768 47.7687Z" fill="white" stroke="#0B0C0C" stroke-width="0.846" stroke-miterlimit="10"/>
<path fill-rule="evenodd" clip-rule="evenodd" d="M30.0888 52.3198H15.3333C14.47 52.3409 13.6439 52.6755 13.0093 53.2611C12.3746 53.8467 11.9748 54.6432 11.8844 55.502C11.8385 55.906 11.8798 56.3152 12.0055 56.702C12.1311 57.0887 12.3383 57.444 12.6129 57.7439C12.8875 58.0438 13.2232 58.2813 13.5975 58.4405C13.9717 58.5996 14.3756 58.6767 14.7821 58.6664H29.5199C30.3835 58.6501 31.2117 58.3199 31.8496 57.7375C32.4876 57.1552 32.8917 56.3605 32.9866 55.502C33.0293 55.0977 32.9859 54.6889 32.8593 54.3026C32.7326 53.9163 32.5257 53.5611 32.2519 53.2605C31.9782 52.9599 31.6439 52.7207 31.2711 52.5585C30.8983 52.3964 30.4953 52.315 30.0888 52.3198Z" fill="#0B0C0C"/>
</g>
<defs>
<clipPath id="clip0">
<rect width="80" height="80" fill="white"/>
</clipPath>
</defs>
</svg>
