<svg width="80" height="80" viewBox="0 0 80 80" fill="none" xmlns="http://www.w3.org/2000/svg">
<g clip-path="url(#clip0)">
<path d="M31.5109 40.3557L38.2664 29.2091C38.7117 28.4763 38.9698 27.6452 39.018 26.7891C39.0663 25.933 38.9031 25.0782 38.543 24.3001C38.1829 23.5219 37.6369 22.8443 36.9531 22.3269C36.2693 21.8096 35.4688 21.4684 34.622 21.3335H34.5153C28.8975 20.3024 25.6264 17.0135 23.0842 15.0224C22.5936 14.6246 22.0128 14.3533 21.3929 14.2325C20.7729 14.1116 20.1328 14.1447 19.5287 14.3291C18.5982 14.6183 17.815 15.255 17.342 16.1069L9.85755 28.0891L5.30644 35.5557C4.94593 36.1347 4.82776 36.8322 4.97746 37.4975C5.12716 38.1629 5.53272 38.7426 6.10643 39.1113L9.91088 41.2802C10.1879 41.4525 10.4265 41.6799 10.612 41.9483C10.7975 42.2167 10.9259 42.5203 10.9892 42.8403C11.0525 43.1603 11.0495 43.4899 10.9802 43.8087C10.9109 44.1275 10.7769 44.4287 10.5864 44.6935L0.719769 59.9291L0.577547 60.1424C0.273026 60.618 0.082623 61.1576 0.0212222 61.719C-0.0401787 62.2804 0.0290854 62.8484 0.223601 63.3786C0.418117 63.9087 0.732615 64.3868 1.14251 64.7752C1.5524 65.1637 2.04659 65.4521 2.58644 65.618C3.49769 65.8424 4.45778 65.7561 5.31444 65.3728C6.1711 64.9896 6.87529 64.3313 7.31532 63.5024L16.2042 47.858" fill="#0B0C0C"/>
<path d="M31.5109 40.3557L38.2664 29.2091C38.7117 28.4763 38.9698 27.6452 39.018 26.7891C39.0663 25.933 38.9031 25.0782 38.543 24.3001C38.1829 23.5219 37.6369 22.8443 36.9531 22.3269C36.2693 21.8096 35.4688 21.4684 34.622 21.3335H34.5153C28.8975 20.3024 25.6264 17.0135 23.0842 15.0224C22.5936 14.6246 22.0128 14.3533 21.3929 14.2325C20.7729 14.1116 20.1328 14.1447 19.5287 14.3291C18.5982 14.6183 17.815 15.255 17.342 16.1069L9.85755 28.0891L5.30644 35.5557C4.94593 36.1347 4.82776 36.8322 4.97746 37.4975C5.12716 38.1629 5.53272 38.7426 6.10643 39.1113L9.91088 41.2802C10.1879 41.4525 10.4265 41.6799 10.612 41.9483C10.7975 42.2167 10.9259 42.5203 10.9892 42.8403C11.0525 43.1603 11.0495 43.4899 10.9802 43.8087C10.9109 44.1275 10.7769 44.4287 10.5864 44.6935L0.719769 59.9291L0.577547 60.1424C0.273026 60.618 0.082623 61.1576 0.0212222 61.719C-0.0401787 62.2804 0.0290854 62.8484 0.223601 63.3786C0.418117 63.9087 0.732615 64.3868 1.14251 64.7752C1.5524 65.1637 2.04659 65.4521 2.58644 65.618C3.49769 65.8424 4.45778 65.7561 5.31444 65.3728C6.1711 64.9896 6.87529 64.3313 7.31532 63.5024L16.2042 47.858" stroke="#0B0C0C" stroke-width="0.9" stroke-miterlimit="10"/>
<path d="M16.8081 48.2844C17.1157 47.6867 17.6476 47.2353 18.2872 47.0287C18.9269 46.8221 19.6224 46.8773 20.2214 47.1822L24.2214 49.4577C24.8092 49.7525 25.4878 49.8099 26.1166 49.6179C26.7454 49.4259 27.2763 48.9994 27.5992 48.4266L32.2037 40.7644" fill="#0B0C0C"/>
<path d="M16.8081 48.2844C17.1157 47.6867 17.6476 47.2353 18.2872 47.0287C18.9269 46.8221 19.6224 46.8773 20.2214 47.1822L24.2214 49.4577C24.8092 49.7525 25.4878 49.8099 26.1166 49.6179C26.7454 49.4259 27.2763 48.9994 27.5992 48.4266L32.2037 40.7644" stroke="#0B0C0C" stroke-width="0.9" stroke-miterlimit="10"/>
<path d="M11.7597 28L7.31525 35.5556C6.94629 36.1238 6.81413 36.8137 6.947 37.4781C7.07987 38.1424 7.46723 38.7285 8.02636 39.1111L11.8308 41.28C12.1078 41.4524 12.3464 41.6798 12.5319 41.9481C12.7174 42.2165 12.8458 42.5201 12.9091 42.8401C12.9725 43.1601 12.9694 43.4897 12.9001 43.8085C12.8308 44.1273 12.6968 44.4285 12.5064 44.6933L2.63969 59.9289L2.49747 60.1422C2.19295 60.6178 2.00254 61.1574 1.94114 61.7188C1.87974 62.2802 1.94901 62.8482 2.14352 63.3784C2.33804 63.9086 2.65254 64.3866 3.06243 64.7751C3.47232 65.1635 3.96651 65.452 4.50636 65.6178C5.40063 65.8021 6.33054 65.6922 7.15721 65.3045C7.98389 64.9168 8.66296 64.2721 9.09302 63.4667L17.9819 47.8222C18.2931 47.2233 18.8281 46.7715 19.4707 46.5651C20.1132 46.3587 20.8113 46.4143 21.413 46.72L25.3952 48.9956C25.983 49.2903 26.6616 49.3477 27.2904 49.1557C27.9193 48.9638 28.4501 48.5372 28.773 47.9644L33.4308 40.3022L11.7597 28Z" fill="white" stroke="#0B0C0C" stroke-width="0.9" stroke-miterlimit="10"/>
<path d="M20.9509 14.7554C21.5543 14.5647 22.1958 14.5282 22.8169 14.6493C23.4381 14.7705 24.0189 15.0453 24.5064 15.4488C27.9109 18.4029 32.0194 20.4296 36.4353 21.3332C39.2069 21.8203 42.0367 21.8803 44.8264 21.511L33.4309 40.3021L11.7598 27.9999L18.7642 16.4443C19.2544 15.626 20.0353 15.0229 20.9509 14.7554Z" fill="white" stroke="#0B0C0C" stroke-width="0.9" stroke-miterlimit="10"/>
<path d="M33.8573 20.9778L26.8706 32.5333L33.8573 20.9778Z" fill="white"/>
<path d="M33.8573 20.9778L26.8706 32.5333" stroke="#0B0C0C" stroke-width="0.9" stroke-miterlimit="10"/>
<path d="M28.6476 18.24L22.7632 27.9467L28.6476 18.24Z" fill="white"/>
<path d="M28.6476 18.24L22.7632 27.9467" stroke="#0B0C0C" stroke-width="0.9" stroke-miterlimit="10"/>
</g>
<defs>
<clipPath id="clip0">
<rect width="80" height="80" fill="white"/>
</clipPath>
</defs>
</svg>
