<svg width="80" height="80" viewBox="0 0 80 80" fill="none" xmlns="http://www.w3.org/2000/svg">
<g clip-path="url(#clip0)">
<path d="M46.4985 51.058H1.92961C1.66098 51.0619 1.39455 51.0089 1.14789 50.9024C0.901222 50.796 0.679907 50.6384 0.498517 50.4403C0.317126 50.2421 0.179774 50.0077 0.0955059 49.7526C0.0112373 49.4975 -0.0180369 49.2274 0.00961159 48.9602L2.30294 22.8624C2.36462 22.2841 2.63883 21.7493 3.07241 21.3617C3.50599 20.9741 4.06805 20.7614 4.64961 20.7646H49.0941C49.362 20.7604 49.6278 20.8133 49.8737 20.92C50.1196 21.0266 50.3399 21.1845 50.52 21.383C50.7 21.5815 50.8356 21.8162 50.9177 22.0713C50.9999 22.3264 51.0267 22.5961 50.9963 22.8624L48.7741 48.9602C48.7175 49.5279 48.4546 50.0551 48.0351 50.4418C47.6157 50.8284 47.0689 51.0477 46.4985 51.058Z" fill="#0B0C0C" stroke="#0B0C0C" stroke-width="0.846" stroke-miterlimit="10"/>
<path d="M48.3653 51.058H3.77862C3.51064 51.0622 3.24484 51.0093 2.99895 50.9026C2.75307 50.796 2.53275 50.6382 2.35272 50.4396C2.17269 50.2411 2.03708 50.0064 1.95494 49.7513C1.8728 49.4962 1.84602 49.2265 1.8764 48.9602L4.16973 22.8624C4.22586 22.2977 4.48625 21.7729 4.90199 21.3866C5.31773 21.0004 5.8602 20.7792 6.42751 20.7646H51.0142C51.2822 20.7604 51.548 20.8133 51.7938 20.92C52.0397 21.0266 52.26 21.1845 52.4401 21.383C52.6201 21.5815 52.7557 21.8162 52.8379 22.0713C52.92 22.3264 52.9468 22.5961 52.9164 22.8624L50.6408 48.9602C50.5806 49.5264 50.3166 50.0514 49.8979 50.4374C49.4793 50.8234 48.9345 51.0439 48.3653 51.058Z" fill="white" stroke="#0B0C0C" stroke-width="0.846" stroke-miterlimit="10"/>
<path d="M56.4548 59.236H11.8859C11.6188 59.2374 11.3543 59.1825 11.1098 59.0749C10.8653 58.9673 10.6462 58.8095 10.4667 58.6115C10.2873 58.4136 10.1515 58.1802 10.0683 57.9263C9.98506 57.6724 9.95625 57.4039 9.98371 57.1382L12.277 31.0404C12.3373 30.4742 12.6013 29.9492 13.02 29.5632C13.4386 29.1772 13.9834 28.9567 14.5526 28.9426H59.1037C59.3717 28.9384 59.6375 28.9913 59.8834 29.098C60.1293 29.2046 60.3496 29.3624 60.5296 29.561C60.7096 29.7595 60.8453 29.9942 60.9274 30.2493C61.0095 30.5044 61.0363 30.7741 61.0059 31.0404L58.7304 57.1382C58.6739 57.7059 58.4109 58.2331 57.9915 58.6197C57.572 59.0064 57.0252 59.2257 56.4548 59.236Z" fill="#0B0C0C" stroke="#0B0C0C" stroke-width="0.846" stroke-miterlimit="10"/>
<path d="M58.3205 59.236H13.7338C13.46 59.2507 13.1862 59.2055 12.9316 59.1035C12.677 59.0015 12.4478 58.8452 12.2599 58.6454C12.072 58.4456 11.93 58.2073 11.8437 57.947C11.7574 57.6866 11.729 57.4106 11.7605 57.1382L14.0538 31.0404C14.1099 30.4757 14.3703 29.9509 14.7861 29.5646C15.2018 29.1783 15.7443 28.9572 16.3116 28.9426H60.9694C61.2374 28.9384 61.5032 28.9913 61.749 29.098C61.9949 29.2046 62.2152 29.3624 62.3953 29.561C62.5753 29.7595 62.7109 29.9942 62.7931 30.2493C62.8752 30.5044 62.902 30.7741 62.8716 31.0404L60.5783 57.1382C60.5259 57.7043 60.2666 58.2313 59.8501 58.6183C59.4336 59.0054 58.889 59.2252 58.3205 59.236Z" fill="white" stroke="#0B0C0C" stroke-width="0.846" stroke-miterlimit="10"/>
<path d="M30.498 54.8091L31.3158 50.8269H32.1158L31.3158 54.8091H30.498Z" fill="black"/>
<path d="M35.1738 52.7821L34.3916 52.9066C34.3971 52.7849 34.3593 52.6653 34.285 52.5688C34.239 52.5288 34.1853 52.4987 34.1272 52.4804C34.069 52.462 34.0078 52.4558 33.9472 52.4621C33.7683 52.4646 33.5969 52.5344 33.4672 52.6577C33.304 52.8406 33.2042 53.0713 33.1827 53.3155C33.0956 53.5506 33.0956 53.8092 33.1827 54.0443C33.2277 54.1153 33.2912 54.1727 33.3664 54.2103C33.4416 54.2479 33.5256 54.2643 33.6094 54.2577C33.7434 54.2542 33.8734 54.2108 33.9827 54.1332C34.1073 54.0167 34.1993 53.8696 34.2494 53.7066L34.9783 53.831C34.8597 54.1415 34.6564 54.4125 34.3916 54.6132C34.1186 54.7959 33.7955 54.8891 33.4672 54.8799C33.2887 54.8934 33.1097 54.8632 32.9455 54.7919C32.7814 54.7207 32.637 54.6105 32.525 54.471C32.4152 54.3121 32.3422 54.1307 32.3115 53.94C32.2807 53.7493 32.2929 53.5542 32.3472 53.3688C32.403 52.9425 32.6115 52.551 32.9338 52.2666C33.2287 51.9949 33.6175 51.8483 34.0183 51.8577C34.3044 51.8326 34.5896 51.915 34.8183 52.0888C34.9219 52.1738 35.0069 52.2792 35.0681 52.3985C35.1293 52.5178 35.1653 52.6484 35.1738 52.7821Z" fill="black"/>
<path d="M35.6894 53.3332C35.7453 53.0624 35.8607 52.8073 36.0272 52.5865C36.186 52.3588 36.4001 52.1753 36.6494 52.0532C36.8971 51.9263 37.1711 51.8593 37.4494 51.8577C37.6373 51.845 37.8254 51.8771 37.9985 51.9513C38.1716 52.0255 38.3246 52.1396 38.445 52.2843C38.5597 52.4341 38.64 52.6074 38.6799 52.7918C38.7199 52.9762 38.7186 53.1672 38.6761 53.351C38.6068 53.7759 38.3857 54.1612 38.0539 54.4354C37.8083 54.6671 37.497 54.8171 37.1628 54.8648C36.8286 54.9126 36.4878 54.8557 36.1872 54.7021C35.9761 54.5831 35.8128 54.3946 35.725 54.1688C35.6469 53.897 35.6347 53.6106 35.6894 53.3332ZM36.4716 53.3332C36.4418 53.4432 36.4342 53.5581 36.4495 53.6711C36.4648 53.7841 36.5025 53.8928 36.5605 53.991C36.6139 54.0633 36.6835 54.1219 36.7639 54.1621C36.8442 54.2022 36.9329 54.2228 37.0228 54.2221C37.2232 54.2147 37.4136 54.1322 37.5561 53.991C37.7345 53.8146 37.8474 53.5825 37.8761 53.3332C37.9621 53.1224 37.9621 52.8863 37.8761 52.6754C37.8262 52.5996 37.7572 52.5384 37.676 52.4978C37.5949 52.4572 37.5044 52.4388 37.4139 52.4443C37.3112 52.4439 37.2095 52.4641 37.1148 52.5038C37.0201 52.5435 36.9344 52.6019 36.8628 52.6754C36.6646 52.8466 36.5273 53.0774 36.4716 53.3332Z" fill="black"/>
<path d="M41.8597 54.8089H41.0953L41.362 53.3333C41.3899 53.1328 41.3899 52.9294 41.362 52.7289C41.3489 52.6446 41.3044 52.5684 41.2375 52.5156C41.1573 52.4856 41.0689 52.4856 40.9886 52.5156C40.857 52.5176 40.7282 52.5544 40.6153 52.6222C40.4966 52.6839 40.4025 52.7842 40.3486 52.9067C40.262 53.1237 40.2023 53.3506 40.1708 53.5822L39.9397 54.88H39.1753L39.6908 52H40.402V52.4267C40.5277 52.2742 40.685 52.1507 40.863 52.0648C41.041 51.9789 41.2355 51.9325 41.4331 51.9289C41.5797 51.8987 41.7309 51.8987 41.8775 51.9289C41.9897 51.9817 42.0873 52.061 42.162 52.16C42.2078 52.2615 42.2378 52.3694 42.2508 52.48C42.2641 52.6516 42.2641 52.824 42.2508 52.9955L41.8597 54.8089Z" fill="black"/>
<path d="M36.9169 47.1113C36.0607 47.1244 35.2114 46.9571 34.4242 46.6201C33.637 46.2832 32.9296 45.7842 32.348 45.1558C31.7724 44.5163 31.336 43.7641 31.0667 42.9469C30.7974 42.1298 30.7009 41.2655 30.7835 40.4091C30.9739 38.6117 31.8144 36.9459 33.1469 35.7247C34.4793 34.5036 36.212 33.8113 38.0191 33.778C38.8765 33.7656 39.7268 33.9353 40.5138 34.2758C41.3008 34.6164 42.0065 35.12 42.5845 35.7534C43.1625 36.3868 43.5995 37.1357 43.8667 37.9505C44.134 38.7653 44.2253 39.6275 44.1347 40.4802C43.9483 42.276 43.1116 43.9417 41.782 45.1631C40.4525 46.3846 38.722 47.0775 36.9169 47.1113Z" fill="white"/>
<path d="M38.0195 34.1335C38.8264 34.1211 39.6267 34.2805 40.3673 34.6011C41.1079 34.9217 41.7718 35.3963 42.3149 35.9932C42.858 36.5901 43.2679 37.2957 43.5173 38.0632C43.7668 38.8307 43.8501 39.6424 43.7617 40.4446C43.5698 42.1466 42.7699 43.7221 41.5092 44.8816C40.2485 46.0411 38.6116 46.7065 36.8995 46.7557C36.0896 46.7732 35.2854 46.6176 34.5405 46.2992C33.7956 45.9809 33.1273 45.5071 32.5803 44.9096C32.0333 44.3121 31.6202 43.6047 31.3687 42.8347C31.1171 42.0646 31.033 41.2498 31.1217 40.4446C31.3142 38.7396 32.1166 37.1617 33.381 36.0018C34.6454 34.842 36.2865 34.1784 38.0017 34.1335H38.0195ZM38.0017 33.4224C36.1081 33.4557 34.2923 34.1812 32.897 35.4618C31.5017 36.7425 30.6236 38.4897 30.4284 40.3735C30.3272 41.2777 30.4199 42.1931 30.7004 43.0587C30.981 43.9243 31.4428 44.7201 32.0552 45.393C32.6676 46.066 33.4164 46.6006 34.2518 46.9613C35.0871 47.3219 35.9898 47.5003 36.8995 47.4846C38.7947 47.4469 40.6108 46.7176 42.0057 45.4341C43.4006 44.1505 44.278 42.4012 44.4729 40.5157C44.5555 39.6209 44.4529 38.7188 44.1715 37.8654C43.8901 37.0121 43.4359 36.2258 42.8373 35.5557C42.2238 34.8932 41.4779 34.3673 40.6478 34.012C39.8178 33.6567 38.9223 33.48 38.0195 33.4935L38.0017 33.4224Z" fill="#0B0C0C"/>
<path d="M37.8577 35.9822L38.9955 38.7733L42.0355 39.2355L39.6177 41.4044L39.8666 44.48L37.2355 43.04L34.3377 44.48L35.1377 41.4044L33.0933 39.2355L36.2222 38.7733L37.8577 35.9822Z" fill="#0B0C0C"/>
</g>
<defs>
<clipPath id="clip0">
<rect width="80" height="80" fill="white"/>
</clipPath>
</defs>
</svg>
